<?xml version="1.0" encoding="UTF-8"?><svg id="Layer_1" xmlns="http://www.w3.org/2000/svg" viewBox="0 0 18.03 24.03"><defs><style>.cls-1{fill:#fff;}</style></defs><path id="Path_16055" class="cls-1" d="m10.63,19.16c0-.07-.02-.15-.04-.22-.24-.91-.47-1.82-.73-2.73-.1-.24-.03-.52.18-.68.41-.41.5-1.04.22-1.54-.25-.49-.76-.79-1.31-.77-.56.03-1.05.4-1.23.94-.21.54-.04,1.15.41,1.51.14.1.19.28.12.44-.26.92-.49,1.84-.73,2.76-.02.1-.03.19-.04.29h3.16m-1.6-7.9c.36-.84.92-1.57,1.64-2.13,1.7-1.25,4.05-1.1,5.58.35,1.82,1.75,2.3,4.47,1.19,6.74-.7,1.35-1.62,2.57-2.73,3.61-1.66,1.6-3.5,3-5.49,4.16-.11.06-.24.07-.35.03-2.38-1.37-4.53-3.09-6.4-5.09-1.05-1.08-1.83-2.4-2.28-3.84-.56-2.11.14-4.35,1.8-5.77,1.81-1.56,4.54-1.36,6.1.45.19.22.36.46.5.72.15.24.28.49.44.78"/><path id="Path_16056" class="cls-1" d="m5.5,2.77c.4.38.79.78,1.21,1.13.35.29.54.26.77-.13.33-.55.62-1.11.9-1.68.04-.08-.04-.24-.11-.33-.39-.41-.37-1.05.04-1.43.02-.02.04-.04.07-.06.41-.38,1.05-.35,1.42.06.38.41.35,1.05-.06,1.42-.14.1-.17.29-.08.43,0,0,0,0,0,0,.3.53.57,1.09.89,1.61.22.36.37.37.72.13.16-.11.31-.23.45-.37.27-.27.52-.54.78-.81-.49-.67-.4-1.36.2-1.68.49-.26,1.09-.08,1.35.41.27.47.1,1.07-.38,1.34-.02,0-.03.02-.05.03-.21.08-.36.27-.39.49-.23.95-.48,1.89-.72,2.83-.04.26-.27.44-.53.41-2,0-4,0-5.99,0-.26.03-.5-.15-.53-.41-.24-.97-.51-1.93-.74-2.9-.03-.19-.16-.35-.33-.41-.43-.2-.67-.67-.56-1.13.1-.41.44-.71.86-.77.47-.07.92.21,1.07.66.14.36.06.67-.28,1.14"/></svg>